<svg width="179" height="35" viewBox="0 0 179 35" fill="none" xmlns="http://www.w3.org/2000/svg">
<path d="M173.594 23.9997C176.439 23.9997 179 26.5711 179 29.4282C179 32.3806 176.582 34.952 173.594 34.952C170.654 34.952 168.093 32.3806 168.093 29.4282C168.093 26.4283 170.654 23.9997 173.594 23.9997Z" fill="black"/>
<path d="M155.297 1.04761L167.531 33.9044C166.156 33.9044 164.828 33.9044 163.453 33.9044H159.422C154.87 31.6663 150.27 29.4283 145.718 27.2378L143.442 33.9044H134.527C135.807 30.4759 137.087 27.0473 138.415 23.6664C137.087 22.9997 135.807 22.3807 134.527 21.7617V13.1903C136.708 14.2856 138.889 15.4284 141.071 16.5712C143.062 11.3808 145.007 6.23803 146.951 1.04761H151.029C152.452 1.04761 153.874 1.04761 155.297 1.04761ZM148.136 20.1903L155.249 23.8093C153.827 19.8093 152.404 15.8094 150.981 11.8094L148.136 20.1903Z" fill="black"/>
<path d="M93.3788 1.04761H101.914C102.294 9.71418 103.432 17.6665 104.38 21.1902C104.76 22.6188 105.092 23.2855 105.566 23.2855C106.04 23.2855 106.372 22.6188 106.751 21.1902C108.032 16.5236 108.838 9.61894 108.838 3.99996H118.132C118.132 9.61894 118.938 16.5236 120.219 21.1902C120.598 22.6188 120.93 23.2855 121.404 23.2855C121.878 23.2855 122.21 22.6188 122.59 21.1902C123.538 17.6189 124.676 9.71418 125.055 1.04761H133.591C133.022 13.2856 131.315 23.0474 128.849 28.6187C126.952 32.952 124.581 34.7615 121.783 34.7615C118.938 34.7615 116.472 32.2377 115.097 28.0949C113.959 24.6188 113.485 21.8093 113.485 17.9046C113.485 21.8093 113.011 24.6188 111.873 28.0949C110.497 32.2377 108.032 34.7615 105.186 34.7615C102.389 34.7615 99.9228 32.7139 98.1208 28.6187C95.6075 22.9997 93.9479 13.4284 93.3788 1.04761Z" fill="black"/>
<path d="M74.7587 34.952C64.8005 34.952 57.4504 27.1902 57.4504 17.2379C57.4504 7.52373 64.7057 0 74.7587 0C84.8117 0 92.067 7.52373 92.067 17.2379C92.067 27.1902 84.7169 34.952 74.7587 34.952ZM74.7587 25.714C79.0265 25.714 82.2985 21.9521 82.2985 17.2379C82.2985 12.7618 79.2162 9.23799 74.7587 9.23799C70.3486 9.23799 67.2189 12.7618 67.2189 17.2379C67.2189 21.9521 70.4909 25.714 74.7587 25.714Z" fill="black"/>
<path d="M47.3 34.7615C34.9233 34.7615 33.8801 25.5235 33.8801 17.7617C33.8801 12.2856 34.544 6.57136 35.6821 1.04761H44.6918C43.5538 6.4285 42.8899 11.9523 42.8899 17.2855C42.8899 21.8569 43.4589 25.9997 47.8216 25.9997C50.5245 25.9997 53.7016 25.2854 56.4046 24.3331V33.0949C53.7016 34.0472 50.3348 34.7615 47.3 34.7615Z" fill="black"/>
<path d="M34.7114 33.9044H25.8439C25.2274 33.4282 24.611 32.952 24.0893 32.4282C21.7658 33.7615 18.968 34.5711 15.696 34.5711C6.73364 34.5711 0 27.2854 0 17.3331C0 8.09515 6.92332 0.380951 17.2609 0.380951C20.9122 0.380951 24.6584 1.47618 27.3613 3.23806V12.5713C24.6584 10.5713 21.3864 9.14276 17.9247 9.14276C12.7086 9.14276 9.48399 12.9046 9.48399 17.3331C9.48399 22.6664 12.424 25.9045 16.2651 25.9045C16.9764 25.9045 17.7351 25.8092 18.4464 25.6188C17.7351 24.1902 17.3557 22.8093 17.3557 21.5712C17.3557 17.7617 19.9638 14.9046 24.0893 14.9046C28.12 14.9046 30.9178 17.9522 30.9178 22.2379C30.9178 24.2378 30.1117 26.4283 28.6417 28.4283C30.3014 30.1901 32.3404 32.0473 34.7114 33.9044Z" fill="black"/>
</svg>
